<svg width="1440" height="1024" viewBox="0 0 1440 1024" fill="none" xmlns="http://www.w3.org/2000/svg">
<g clip-path="url(#clip0_7_58)">
<rect width="1440" height="1024" fill="#F7FAFF"/>
<path fill-rule="evenodd" clip-rule="evenodd" d="M1439.81 -173L1364.88 -129.738C1288.74 -85.7788 1138.88 0.744537 1011.91 129.717C885.108 256.176 781.199 425.085 622.791 499.599C464.544 571.6 250.589 549.905 109.111 650.951C-34.6242 750.879 -105.883 973.548 -142.198 1086.49L-178.351 1196.91L-103.42 1153.65C-27.2797 1109.69 524.929 1198.72 676 1111.5C825.863 1024.98 1072.64 1283.44 1222.5 1196.91C2051.58 1341.73 1613.14 654.523 1763 568C1914.07 480.779 1477.39 240.971 1553.53 197.011L1628.46 153.749L1439.81 -173Z" fill="#D0DEF5" fill-opacity="0.15"/>
<path fill-rule="evenodd" clip-rule="evenodd" d="M159.432 1378.37L188.682 1290.06C217.933 1201.75 276.434 1025.13 366.804 894.019C457.174 762.912 579.414 677.319 714.401 609.932C849.388 542.544 997.123 493.363 1132.11 425.975C1267.1 358.588 1389.34 272.995 1450.46 230.198L1511.58 187.402L1702.79 460.485L1641.67 503.282C1580.55 546.078 1913.54 694.507 1791.3 780.1C1669.06 865.693 1741.09 1143.86 1618.85 1229.46C1496.61 1315.05 724.876 1145.23 602.636 1230.82C480.397 1316.42 358.157 1402.01 297.037 1444.8L235.918 1487.6L159.432 1378.37Z" fill="#D0DEF5" fill-opacity="0.15"/>
<path fill-rule="evenodd" clip-rule="evenodd" d="M276.876 1401.94L324.461 1339.83C372.046 1277.72 467.215 1153.49 592.823 1072.74C718.43 991.986 874.476 954.703 993.32 864.29C1112.16 773.877 1193.8 630.333 1316.03 544.75C1438.26 459.167 1601.07 431.544 1682.47 417.732L1763.87 403.921L1824.75 490.861L1763.64 533.653C1702.53 576.444 1872.39 657.779 1750.17 743.362C1627.94 828.946 1749.7 902.787 1627.47 988.37C1505.24 1073.95 846.947 1175.53 724.721 1261.11C602.496 1346.69 480.27 1432.28 419.158 1475.07L358.045 1517.86L276.876 1401.94Z" fill="#BBC1DE" fill-opacity="0.1"/>
</g>
<defs>
<clipPath id="clip0_7_58">
<rect width="1440" height="1024" fill="white"/>
</clipPath>
</defs>
</svg>
